<svg id="Mobile_app_store_badge" data-name="Mobile app store badge" xmlns="http://www.w3.org/2000/svg" width="200" height="65" viewBox="0 0 200 65">
  <rect id="Mobile_app_store_badge-2" data-name="Mobile app store badge" width="200" height="65" fill="#333"/>
  <path id="App_Store" data-name="App Store" d="M81.43,2.319V6.042H84.7V8.483H81.43v7.554c0,1.538.65,2.212,2.131,2.212a10.048,10.048,0,0,0,1.134-.067V20.6a9.848,9.848,0,0,1-1.619.148c-3.306,0-4.621-1.133-4.621-3.966v-8.3H76.063V6.042h2.393V2.319Z" transform="translate(57.421 28.883)" fill="#fff"/>
  <path id="App_Store-2" data-name="App Store" d="M86.007,13.312c0-4.735,2.712-7.621,7.111-7.621s7.1,2.887,7.1,7.621c0,4.762-2.7,7.635-7.1,7.635S86.007,18.074,86.007,13.312Zm11.151,0c0-3.183-1.466-5.045-4.04-5.045s-4.04,1.861-4.04,5.045c0,3.21,1.453,5.058,4.04,5.058S97.158,16.509,97.158,13.312Z" transform="translate(57.421 28.883)" fill="#fff"/>
  <path id="App_Store-3" data-name="App Store" d="M102.524,5.974h2.864V8.227h.221a4.091,4.091,0,0,1,4.067-2.5A6.439,6.439,0,0,1,111,5.853v2.86a8.379,8.379,0,0,0-1.66-.175c-2.255,0-3.846,1.389-3.846,3.453v8.673h-2.974Z" transform="translate(57.421 28.883)" fill="#fff"/>
  <path id="App_Store-4" data-name="App Store" d="M114.488,11.963H122.1a3.586,3.586,0,0,0-3.708-3.8A3.806,3.806,0,0,0,114.488,11.963ZM124.947,16.7c-.678,2.63-3.085,4.249-6.53,4.249-4.316,0-6.959-2.887-6.959-7.581s2.7-7.675,6.945-7.675c4.192,0,6.724,2.792,6.724,7.405v1.012H114.488v.162c.1,2.576,1.632,4.209,4.012,4.209,1.8,0,3.03-.634,3.583-1.781Z" transform="translate(57.421 28.883)" fill="#fff"/>
  <path id="App_Store-5" data-name="App Store" d="M62.133,15.239c.272,1.915,2.194,3.132,4.961,3.132,2.581,0,4.474-1.3,4.474-3.09,0-1.538-1.2-2.461-3.943-3.09l-2.667-.629c-3.743-.853-5.449-2.614-5.449-5.578C59.509,2.391,62.52,0,67.037,0c4.2,0,7.27,2.391,7.456,5.788H71.368c-.3-1.859-1.964-3.02-4.373-3.02-2.538,0-4.23,1.188-4.23,3.006,0,1.44,1.09,2.265,3.786,2.88l2.28.545c4.244.965,5.994,2.642,5.994,5.676,0,3.859-3.069,6.277-7.973,6.277-4.589,0-7.671-2.307-7.9-5.914Z" transform="translate(57.421 28.883)" fill="#fff"/>
  <path id="App_Store-6" data-name="App Store" d="M34.391,13.312c0,4.667-2.421,7.594-6.226,7.594a4.94,4.94,0,0,1-4.635-2.468H23.3v7.109H20.321V5.974h2.864V8.4h.221a5.261,5.261,0,0,1,4.731-2.671c3.832,0,6.253,2.914,6.253,7.581Zm-3.057,0c0-3.1-1.508-4.977-4.026-4.977S23.24,10.25,23.24,13.326,24.8,18.3,27.294,18.3c2.532,0,4.04-1.875,4.04-4.991Z" transform="translate(57.421 28.883)" fill="#fff"/>
  <path id="App_Store-7" data-name="App Store" d="M51.052,13.312c0,4.667-2.421,7.594-6.226,7.594a4.94,4.94,0,0,1-4.635-2.468h-.235v7.109H36.982V5.974h2.864V8.4h.221A5.261,5.261,0,0,1,44.8,5.731c3.832,0,6.253,2.914,6.253,7.581Zm-3.057,0c0-3.1-1.508-4.977-4.026-4.977S39.9,10.25,39.9,13.326,41.465,18.3,43.955,18.3c2.532,0,4.04-1.875,4.04-4.991Z" transform="translate(57.421 28.883)" fill="#fff"/>
  <path id="App_Store-8" data-name="App Store" d="M13.092,15.309H5.205L3.3,20.663H0L7.471.489h3.456L18.4,20.663H14.984ZM6.022,12.681h6.252l-3-8.528H9.034Z" transform="translate(57.421 28.883)" fill="#fff"/>
  <path id="Download_on_the" data-name="Download on the" d="M3.6.479c2.961,0,4.7,1.774,4.7,4.836,0,3.109-1.722,4.9-4.7,4.9H0V.479ZM1.549,8.835H3.431c2.089,0,3.293-1.268,3.293-3.5,0-2.2-1.224-3.48-3.293-3.48H1.549Z" transform="translate(59.419 13.676)" fill="#fff"/>
  <path id="Download_on_the-2" data-name="Download on the" d="M10.02,6.535c0-2.367,1.356-3.811,3.556-3.811s3.549,1.443,3.549,3.811-1.349,3.817-3.549,3.817S10.02,8.916,10.02,6.535Zm5.575,0c0-1.592-.733-2.522-2.02-2.522s-2.02.931-2.02,2.522.726,2.529,2.02,2.529,2.02-.931,2.02-2.529Z" transform="translate(59.419 13.676)" fill="#fff"/>
  <path id="Download_on_the-3" data-name="Download on the" d="M26.543,10.211H25L23.444,4.8h-.118l-1.549,5.409H20.248L18.173,2.866h1.508l1.349,5.6h.111l1.549-5.6h1.425l1.549,5.6h.118l1.342-5.6h1.487Z" transform="translate(59.419 13.676)" fill="#fff"/>
  <path id="Download_on_the-4" data-name="Download on the" d="M30.324,2.866h1.432V4.033h.111a2.262,2.262,0,0,1,2.248-1.308,2.416,2.416,0,0,1,2.608,2.731v4.755H35.235V5.82c0-1.18-.526-1.767-1.626-1.767a1.7,1.7,0,0,0-1.8,1.861v4.3H30.324Z" transform="translate(59.419 13.676)" fill="#fff"/>
  <path id="Download_on_the-5" data-name="Download on the" d="M39.065,0h1.487V10.211H39.065Z" transform="translate(59.419 13.676)" fill="#fff"/>
  <path id="Download_on_the-6" data-name="Download on the" d="M42.59,6.535c0-2.367,1.356-3.811,3.556-3.811s3.549,1.443,3.549,3.811-1.349,3.817-3.549,3.817S42.59,8.916,42.59,6.535Zm5.575,0c0-1.592-.733-2.522-2.02-2.522s-2.02.931-2.02,2.522.726,2.529,2.02,2.529,2.02-.931,2.02-2.529Z" transform="translate(59.419 13.676)" fill="#fff"/>
  <path id="Download_on_the-7" data-name="Download on the" d="M56.076,7.506V6.893l-1.84.115c-1.038.067-1.508.411-1.508,1.059s.588,1.045,1.4,1.045a1.761,1.761,0,0,0,1.951-1.605Zm-4.842.627c0-1.322,1.01-2.084,2.8-2.192l2.041-.115V5.193c0-.776-.526-1.214-1.543-1.214-.83,0-1.4.3-1.57.816H51.524c.152-1.261,1.37-2.071,3.078-2.071,1.888,0,2.954.917,2.954,2.468v5.018H56.124V9.179h-.118a2.552,2.552,0,0,1-2.262,1.153,2.254,2.254,0,0,1-2.511-2.2Z" transform="translate(59.419 13.676)" fill="#fff"/>
  <path id="Download_on_the-8" data-name="Download on the" d="M59.476,6.535c0-2.32,1.224-3.79,3.127-3.79a2.5,2.5,0,0,1,2.31,1.288h.111V0h1.487V10.211H65.086V9.051h-.118A2.63,2.63,0,0,1,62.6,10.332c-1.916,0-3.127-1.47-3.127-3.8Zm1.536,0c0,1.558.754,2.5,2.013,2.5s2.027-.951,2.027-2.489-.782-2.5-2.027-2.5-2.013.944-2.013,2.489Z" transform="translate(59.419 13.676)" fill="#fff"/>
  <path id="Download_on_the-9" data-name="Download on the" d="M72.6,6.535c0-2.367,1.356-3.811,3.555-3.811S79.7,4.168,79.7,6.535s-1.349,3.817-3.549,3.817S72.6,8.916,72.6,6.535Zm5.575,0c0-1.592-.733-2.522-2.02-2.522s-2.02.931-2.02,2.522.726,2.529,2.02,2.529,2.02-.931,2.02-2.529Z" transform="translate(59.419 13.676)" fill="#fff"/>
  <path id="Download_on_the-10" data-name="Download on the" d="M81.673,2.866H83.1V4.033h.111a2.262,2.262,0,0,1,2.248-1.308,2.416,2.416,0,0,1,2.608,2.731v4.755H86.584V5.82c0-1.18-.526-1.767-1.626-1.767a1.7,1.7,0,0,0-1.8,1.861v4.3H81.673Z" transform="translate(59.419 13.676)" fill="#fff"/>
  <path id="Download_on_the-11" data-name="Download on the" d="M96.408,1.039V2.9h1.632V4.121H96.408V7.9c0,.769.325,1.106,1.065,1.106a5.024,5.024,0,0,0,.567-.034v1.207a4.923,4.923,0,0,1-.809.074c-1.653,0-2.31-.567-2.31-1.983V4.121h-1.2V2.9h1.2V1.039Z" transform="translate(59.419 13.676)" fill="#fff"/>
  <path id="Download_on_the-12" data-name="Download on the" d="M100.037,0h1.473V4.047h.118a2.327,2.327,0,0,1,2.3-1.315,2.446,2.446,0,0,1,2.594,2.738v4.741h-1.487V5.827c0-1.174-.56-1.767-1.612-1.767a1.737,1.737,0,0,0-1.9,1.861v4.289h-1.487Z" transform="translate(59.419 13.676)" fill="#fff"/>
  <path id="Download_on_the-13" data-name="Download on the" d="M109.933,5.861h3.8a1.793,1.793,0,0,0-1.854-1.9,1.9,1.9,0,0,0-1.951,1.9Zm5.229,2.367a3.057,3.057,0,0,1-3.265,2.124c-2.158,0-3.479-1.443-3.479-3.79s1.349-3.838,3.472-3.838c2.1,0,3.362,1.4,3.362,3.7v.506h-5.319v.081a1.963,1.963,0,0,0,2.006,2.1,1.818,1.818,0,0,0,1.792-.89Z" transform="translate(59.419 13.676)" fill="#fff"/>
  <path id="Apple_logo" data-name="Apple logo" d="M29.528,25.967A17.635,17.635,0,0,1,27,30.992c-1.491,2.174-3.054,4.3-5.534,4.337-2.41.054-3.22-1.383-5.985-1.383-2.79,0-3.654,1.344-5.966,1.437-2.362.085-4.168-2.32-5.713-4.474-3.088-4.4-5.492-12.395-2.269-17.836A8.964,8.964,0,0,1,8.986,8.641C11.35,8.593,13.546,10.2,15,10.2c1.426,0,4.139-1.919,6.938-1.633a8.607,8.607,0,0,1,6.652,3.506,8.067,8.067,0,0,0-3.928,6.747,7.839,7.839,0,0,0,4.865,7.149Z" transform="translate(16.619 14.171)" fill="#fff"/>
  <path id="Apple_logo-2" data-name="Apple logo" d="M14.715,8.159A7.484,7.484,0,0,1,16.621,2.7,8.334,8.334,0,0,1,21.967,0a7.787,7.787,0,0,1-1.858,5.672,6.982,6.982,0,0,1-5.395,2.487Z" transform="translate(16.619 14.171)" fill="#fff"/>
</svg>
